<mxfile host="65bd71144e">
    <diagram id="5hoOSq0MT7gR0hAsg4OK" name="Page-1">
        <mxGraphModel dx="898" dy="779" grid="1" gridSize="10" guides="1" tooltips="1" connect="1" arrows="1" fold="1" page="1" pageScale="1" pageWidth="1169" pageHeight="1654" math="0" shadow="0">
            <root>
                <mxCell id="0"/>
                <mxCell id="1" parent="0"/>
                <mxCell id="2" value="" style="rounded=1;whiteSpace=wrap;html=1;gradientColor=none;fillColor=none;glass=0;shadow=0;sketch=0;labelPadding=0;fillOpacity=100;arcSize=2;" parent="1" vertex="1">
                    <mxGeometry x="245" y="160" width="455" height="810" as="geometry"/>
                </mxCell>
                <mxCell id="3" value="" style="endArrow=none;html=1;rounded=0;fontSize=22;entryX=1;entryY=0.25;entryDx=0;entryDy=0;exitX=0;exitY=0.25;exitDx=0;exitDy=0;strokeColor=#FFFFFF;strokeWidth=0.5;fillColor=#f5f5f5;" parent="1" edge="1">
                    <mxGeometry width="50" height="50" relative="1" as="geometry">
                        <mxPoint x="245" y="240" as="sourcePoint"/>
                        <mxPoint x="700" y="240" as="targetPoint"/>
                    </mxGeometry>
                </mxCell>
                <mxCell id="4" value="&lt;font style=&quot;font-size: 20px;&quot;&gt;Edit Project&lt;/font&gt;" style="text;html=1;align=left;verticalAlign=middle;resizable=0;points=[];autosize=1;strokeColor=none;fillColor=none;" parent="1" vertex="1">
                    <mxGeometry x="262.5" y="180" width="130" height="40" as="geometry"/>
                </mxCell>
                <mxCell id="5" value="" style="rounded=1;whiteSpace=wrap;html=1;gradientColor=none;fillColor=none;glass=0;shadow=0;sketch=0;labelPadding=0;fillOpacity=100;arcSize=2;" parent="1" vertex="1">
                    <mxGeometry x="260" y="280" width="420" height="40" as="geometry"/>
                </mxCell>
                <mxCell id="6" value="&lt;font style=&quot;font-size: 15px;&quot;&gt;Project Key&lt;/font&gt;" style="text;html=1;align=left;verticalAlign=middle;resizable=0;points=[];autosize=1;strokeColor=none;fillColor=none;fontSize=20;" parent="1" vertex="1">
                    <mxGeometry x="257.5" y="240" width="100" height="40" as="geometry"/>
                </mxCell>
                <mxCell id="7" value="" style="rounded=1;whiteSpace=wrap;html=1;gradientColor=none;fillColor=none;glass=0;shadow=0;sketch=0;labelPadding=0;fillOpacity=100;arcSize=2;" parent="1" vertex="1">
                    <mxGeometry x="260" y="360" width="420" height="40" as="geometry"/>
                </mxCell>
                <mxCell id="8" value="&lt;font style=&quot;font-size: 15px;&quot;&gt;Name&lt;/font&gt;" style="text;html=1;align=left;verticalAlign=middle;resizable=0;points=[];autosize=1;strokeColor=none;fillColor=none;fontSize=20;" parent="1" vertex="1">
                    <mxGeometry x="257.5" y="320" width="60" height="40" as="geometry"/>
                </mxCell>
                <mxCell id="9" value="" style="rounded=1;whiteSpace=wrap;html=1;gradientColor=none;fillColor=none;glass=0;shadow=0;sketch=0;labelPadding=0;fillOpacity=100;arcSize=2;" parent="1" vertex="1">
                    <mxGeometry x="260.5" y="440" width="420" height="80" as="geometry"/>
                </mxCell>
                <mxCell id="10" value="&lt;font style=&quot;font-size: 15px;&quot;&gt;Description&lt;/font&gt;" style="text;html=1;align=left;verticalAlign=middle;resizable=0;points=[];autosize=1;strokeColor=none;fillColor=none;fontSize=20;" parent="1" vertex="1">
                    <mxGeometry x="260" y="400" width="100" height="40" as="geometry"/>
                </mxCell>
                <mxCell id="11" value="" style="rounded=1;whiteSpace=wrap;html=1;gradientColor=none;fillColor=none;glass=0;shadow=0;sketch=0;labelPadding=0;fillOpacity=100;arcSize=2;" parent="1" vertex="1">
                    <mxGeometry x="260" y="565" width="420" height="40" as="geometry"/>
                </mxCell>
                <mxCell id="12" value="&lt;font style=&quot;font-size: 15px;&quot;&gt;Start Date&lt;/font&gt;" style="text;html=1;align=left;verticalAlign=middle;resizable=0;points=[];autosize=1;strokeColor=none;fillColor=none;fontSize=20;" parent="1" vertex="1">
                    <mxGeometry x="257.5" y="525" width="90" height="40" as="geometry"/>
                </mxCell>
                <mxCell id="13" value="" style="rounded=1;whiteSpace=wrap;html=1;gradientColor=none;fillColor=none;glass=0;shadow=0;sketch=0;labelPadding=0;fillOpacity=100;arcSize=2;" parent="1" vertex="1">
                    <mxGeometry x="262.5" y="645" width="420" height="40" as="geometry"/>
                </mxCell>
                <mxCell id="14" value="&lt;font style=&quot;font-size: 15px;&quot;&gt;Target End Date&lt;/font&gt;" style="text;html=1;align=left;verticalAlign=middle;resizable=0;points=[];autosize=1;strokeColor=none;fillColor=none;fontSize=20;" parent="1" vertex="1">
                    <mxGeometry x="260" y="605" width="130" height="40" as="geometry"/>
                </mxCell>
                <mxCell id="15" value="" style="rounded=1;whiteSpace=wrap;html=1;gradientColor=none;fillColor=none;glass=0;shadow=0;sketch=0;labelPadding=0;fillOpacity=100;arcSize=2;" parent="1" vertex="1">
                    <mxGeometry x="263" y="725" width="420" height="40" as="geometry"/>
                </mxCell>
                <mxCell id="16" value="&lt;font style=&quot;font-size: 15px;&quot;&gt;Actual End Date&lt;/font&gt;" style="text;html=1;align=left;verticalAlign=middle;resizable=0;points=[];autosize=1;strokeColor=none;fillColor=none;fontSize=20;" parent="1" vertex="1">
                    <mxGeometry x="260.5" y="685" width="130" height="40" as="geometry"/>
                </mxCell>
                <mxCell id="17" value="Close" style="rounded=1;whiteSpace=wrap;html=1;gradientColor=none;fillColor=none;glass=0;shadow=0;sketch=0;labelPadding=0;fillOpacity=100;arcSize=2;" parent="1" vertex="1">
                    <mxGeometry x="472.5" y="910" width="90" height="40" as="geometry"/>
                </mxCell>
                <mxCell id="18" value="Done" style="rounded=1;whiteSpace=wrap;html=1;gradientColor=none;fillColor=none;glass=0;shadow=0;sketch=0;labelPadding=0;fillOpacity=100;arcSize=2;" parent="1" vertex="1">
                    <mxGeometry x="592.5" y="910" width="90" height="40" as="geometry"/>
                </mxCell>
                <mxCell id="19" value="" style="rounded=1;whiteSpace=wrap;html=1;gradientColor=none;fillColor=none;glass=0;shadow=0;sketch=0;labelPadding=0;fillOpacity=100;arcSize=2;" parent="1" vertex="1">
                    <mxGeometry x="265.5" y="820" width="420" height="40" as="geometry"/>
                </mxCell>
                <mxCell id="20" value="&lt;font style=&quot;font-size: 15px;&quot;&gt;Project Manager ID&lt;/font&gt;" style="text;html=1;align=left;verticalAlign=middle;resizable=0;points=[];autosize=1;strokeColor=none;fillColor=none;fontSize=20;" parent="1" vertex="1">
                    <mxGeometry x="263" y="780" width="150" height="40" as="geometry"/>
                </mxCell>
            </root>
        </mxGraphModel>
    </diagram>
</mxfile>